<svg xmlns="http://www.w3.org/2000/svg" width="50" height="50" fill="none" viewBox="0 0 50 50">
  <path fill="#F3F3F5" d="M25 4.68a20.834 20.834 0 00-6.588 40.6c1.041.182 1.432-.443 1.432-.99 0-.495-.026-2.135-.026-3.88-5.235.963-6.589-1.276-7.006-2.448a7.576 7.576 0 00-2.135-2.943c-.73-.39-1.77-1.354-.026-1.38a4.17 4.17 0 013.203 2.135 4.451 4.451 0 006.068 1.72c.09-1.06.562-2.05 1.328-2.787-4.635-.521-9.48-2.318-9.48-10.287a8.108 8.108 0 012.136-5.599 7.487 7.487 0 01.209-5.52s1.744-.547 5.729 2.135a19.642 19.642 0 0110.416 0c3.985-2.708 5.73-2.136 5.73-2.136a7.486 7.486 0 01.208 5.521 8.06 8.06 0 012.135 5.6c0 7.994-4.87 9.765-9.505 10.286a4.934 4.934 0 011.406 3.854c0 2.786-.026 5.026-.026 5.73 0 .546.39 1.197 1.433.989A20.845 20.845 0 0025 4.68z"/>
</svg>
