<svg xmlns="http://www.w3.org/2000/svg" width="30" height="30" fill="none" viewBox="0 0 30 30">
  <circle cx="15" cy="15" r="13.5" fill="#F3F3F5" stroke="#F3F3F5" stroke-width="3"/>
  <path fill="#6563FF" d="M21.891 5H8.11A2.114 2.114 0 006 7.119v13.906a2.113 2.113 0 002.109 2.119h11.664l-.546-1.903 1.317 1.224 1.244 1.152L24 25.571V7.12A2.113 2.113 0 0021.891 5zm-3.97 13.433s-.37-.442-.679-.833a3.246 3.246 0 001.862-1.224c-.37.246-.767.45-1.183.607a6.763 6.763 0 01-1.491.442 7.207 7.207 0 01-2.664-.01 8.64 8.64 0 01-1.512-.442 6.036 6.036 0 01-.751-.35c-.031-.02-.062-.031-.093-.052a.143.143 0 01-.04-.03c-.186-.103-.289-.175-.289-.175a3.2 3.2 0 001.8 1.213c-.308.391-.689.854-.689.854a3.729 3.729 0 01-3.137-1.563c.033-2.086.54-4.136 1.481-5.997a5.086 5.086 0 012.89-1.08l.103.124a6.937 6.937 0 00-2.705 1.347s.226-.123.607-.298a7.724 7.724 0 012.335-.648c.057-.012.116-.02.175-.02a8.385 8.385 0 015.174.967 6.845 6.845 0 00-2.562-1.307l.144-.165a5.086 5.086 0 012.89 1.08 13.774 13.774 0 011.482 5.997 3.76 3.76 0 01-3.148 1.563zm-4.783-4.803a1.053 1.053 0 100 2.106 1.053 1.053 0 000-2.106zm3.755 0a1.146 1.146 0 101.049 1.141 1.097 1.097 0 00-1.05-1.141"/>
  <path fill="#C1C0FF" d="M17.921 18.433s-.37-.442-.679-.833a3.246 3.246 0 001.862-1.224c-.37.246-.767.45-1.183.607a6.765 6.765 0 01-1.491.442 7.207 7.207 0 01-2.664-.01 8.649 8.649 0 01-1.512-.442 6.036 6.036 0 01-.751-.35c-.031-.02-.062-.031-.093-.052a.143.143 0 01-.04-.03c-.186-.103-.289-.175-.289-.175a3.2 3.2 0 001.8 1.213c-.308.391-.689.854-.689.854a3.729 3.729 0 01-3.137-1.563c.033-2.086.54-4.136 1.481-5.997a5.086 5.086 0 012.89-1.08l.103.124a6.937 6.937 0 00-2.705 1.347s.226-.123.607-.298a7.724 7.724 0 012.335-.648c.057-.012.116-.02.175-.02a8.385 8.385 0 015.174.967 6.845 6.845 0 00-2.562-1.307l.144-.165a5.086 5.086 0 012.89 1.08 13.774 13.774 0 011.482 5.997 3.76 3.76 0 01-3.148 1.563zm-4.783-4.803a1.053 1.053 0 100 2.106 1.053 1.053 0 000-2.106zm3.755 0a1.146 1.146 0 101.049 1.141 1.097 1.097 0 00-1.05-1.141"/>
</svg>
