<svg xmlns="http://www.w3.org/2000/svg" width="30" height="30" fill="none" viewBox="0 0 30 30">
  <circle cx="15" cy="15" r="13.5" fill="#F3F3F5" stroke="#F3F3F5" stroke-width="3"/>
  <path fill="#6563FF" d="M20 10h1v1a1 1 0 002 0v-1h1a1 1 0 100-2h-1V7a1 1 0 00-2 0v1h-1a1 1 0 100 2zm4 4a1 1 0 00-1 1v6a1 1 0 01-1 1H8a1 1 0 01-1-1v-9.59l5.88 5.89a3 3 0 004.24 0l2.47-2.47a1.004 1.004 0 10-1.42-1.42l-2.47 2.47a1 1 0 01-1.4 0L8.41 10H16a1 1 0 100-2H8a3 3 0 00-3 3v10a3 3 0 003 3h14a3 3 0 003-3v-6a1 1 0 00-1-1z"/>
</svg>
