<svg xmlns="http://www.w3.org/2000/svg" width="30" height="30" fill="none" viewBox="0 0 30 30">
  <circle cx="15" cy="15" r="13.5" fill="#F3F3F5" stroke="#F3F3F5" stroke-width="3"/>
  <path fill="#A2A1FF" d="M20.688 24.744c-.45 0-.887-.15-1.242-.427l-4.03-3.122-2.702 2.983a.999.999 0 01-1.698-.383l-2.02-6.682-3.626-1.26a2.041 2.041 0 01-.103-3.818L23.187 4.8a2.042 2.042 0 012.771 2.295L22.695 23.11a2.054 2.054 0 01-2.008 1.633z"/>
  <path fill="#6563FF" d="M11.973 24.506a1 1 0 01-.957-.71l-2.168-7.16a1 1 0 01.495-1.176L19.91 9.958a1 1 0 011.17 1.594l-7.084 7.083-1.044 5.072a1 1 0 01-.934.798h-.045z"/>
</svg>
