<svg width="24" height="24" viewBox="0 0 24 24" fill="none" xmlns="http://www.w3.org/2000/svg">
<path d="M24 12C24 18.6274 18.6274 24 12 24C5.37258 24 0 18.6274 0 12C0 5.37258 5.37258 0 12 0C18.6274 0 24 5.37258 24 12Z" fill="#F3F3F5"/>
<path d="M7.33567 8.66667H7.3169C7.11249 8.679 6.90773 8.64905 6.7154 8.57869C6.52308 8.50834 6.34733 8.39909 6.19913 8.25777C6.05092 8.11645 5.93344 7.94609 5.85403 7.75733C5.77461 7.56857 5.73497 7.36546 5.73757 7.16069C5.74017 6.95592 5.78496 6.75389 5.86914 6.56721C5.95332 6.38052 6.07508 6.2132 6.22683 6.07569C6.37857 5.93817 6.55704 5.83342 6.75109 5.76797C6.94513 5.70252 7.15058 5.67778 7.35462 5.69529C7.55967 5.68044 7.76557 5.70818 7.95938 5.77675C8.15319 5.84532 8.33071 5.95325 8.48079 6.09375C8.63087 6.23425 8.75026 6.40428 8.83145 6.59315C8.91264 6.78202 8.95388 6.98565 8.95257 7.19123C8.95126 7.39681 8.90743 7.59989 8.82384 7.78771C8.74024 7.97553 8.6187 8.14403 8.46684 8.2826C8.31497 8.42118 8.13609 8.52683 7.94142 8.59293C7.74675 8.65903 7.54051 8.68413 7.33567 8.66667Z" fill="#6563FF"/>
<path d="M8.67867 10.6667H6.012V18.6667H8.67867V10.6667Z" fill="#6563FF"/>
<path d="M15.6784 10.6667C15.229 10.6679 14.7857 10.7707 14.3817 10.9673C13.9776 11.164 13.6232 11.4494 13.345 11.8023V10.6667H10.6784V18.6667H13.345V15C13.345 14.6464 13.4855 14.3072 13.7356 14.0572C13.9856 13.8071 14.3247 13.6667 14.6784 13.6667C15.032 13.6667 15.3711 13.8071 15.6212 14.0572C15.8712 14.3072 16.0117 14.6464 16.0117 15V18.6667H18.6784V13.6667C18.6784 13.2727 18.6008 12.8826 18.45 12.5186C18.2992 12.1546 18.0783 11.8239 17.7997 11.5453C17.5211 11.2668 17.1904 11.0458 16.8264 10.895C16.4624 10.7443 16.0723 10.6667 15.6784 10.6667Z" fill="#6563FF"/>
</svg>
