<svg xmlns="http://www.w3.org/2000/svg" width="30" height="30" fill="none" viewBox="0 0 30 30">
  <circle cx="15" cy="15" r="13.5" fill="#F3F3F5" stroke="#F3F3F5" stroke-width="3"/>
  <path fill="#6563FF" d="M15.71 19.29l-.15-.12a.762.762 0 00-.18-.09L15.2 19a1 1 0 00-.91.27 1.15 1.15 0 00-.21.33 1 1 0 001.3 1.31c.12-.058.23-.132.33-.22a.999.999 0 00.21-1.09 1.001 1.001 0 00-.21-.31zM19 5h-8a3 3 0 00-3 3v14a3 3 0 003 3h8a3 3 0 003-3V8a3 3 0 00-3-3zm1 17a1 1 0 01-1 1h-8a1 1 0 01-1-1V8a1 1 0 011-1h8a1 1 0 011 1v14z"/>
</svg>
