<?xml version="1.0" encoding="UTF-8" standalone="no"?>
<svg
   id="Capa_1"
   style="enable-background:new 0 0 112.196 112.196;"
   version="1.1"
   viewBox="0 0 112.196 112.196"
   xml:space="preserve"
   sodipodi:docname="linkedin.svg"
   inkscape:version="1.1.2 (b8e25be833, 2022-02-05)"
   xmlns:inkscape="http://www.inkscape.org/namespaces/inkscape"
   xmlns:sodipodi="http://sodipodi.sourceforge.net/DTD/sodipodi-0.dtd"
   xmlns="http://www.w3.org/2000/svg"
   xmlns:svg="http://www.w3.org/2000/svg"><defs
     id="defs9162" /><sodipodi:namedview
     id="namedview9160"
     pagecolor="#ffffff"
     bordercolor="#666666"
     borderopacity="1.0"
     inkscape:pageshadow="2"
     inkscape:pageopacity="0.0"
     inkscape:pagecheckerboard="0"
     showgrid="false"
     inkscape:zoom="7.3353774"
     inkscape:cx="56.098"
     inkscape:cy="56.166162"
     inkscape:window-width="1920"
     inkscape:window-height="1009"
     inkscape:window-x="-8"
     inkscape:window-y="-8"
     inkscape:window-maximized="1"
     inkscape:current-layer="Capa_1" /><g
     id="g9127"><circle
       cx="56.098"
       cy="56.097"
       r="56.098"
       style="fill:#007AB9;"
       id="circle9121" /><g
       id="g9125"><path
         d="M89.616,60.611v23.128H76.207V62.161c0-5.418-1.936-9.118-6.791-9.118    c-3.705,0-5.906,2.491-6.878,4.903c-0.353,0.862-0.444,2.059-0.444,3.268v22.524H48.684c0,0,0.18-36.546,0-40.329h13.411v5.715    c-0.027,0.045-0.065,0.089-0.089,0.132h0.089v-0.132c1.782-2.742,4.96-6.662,12.085-6.662    C83.002,42.462,89.616,48.226,89.616,60.611L89.616,60.611z M34.656,23.969c-4.587,0-7.588,3.011-7.588,6.967    c0,3.872,2.914,6.97,7.412,6.97h0.087c4.677,0,7.585-3.098,7.585-6.97C42.063,26.98,39.244,23.969,34.656,23.969L34.656,23.969z     M27.865,83.739H41.27V43.409H27.865V83.739z"
         style="fill:#F1F2F2;"
         id="path9123" /></g></g><g
     id="g9129" /><g
     id="g9131" /><g
     id="g9133" /><g
     id="g9135" /><g
     id="g9137" /><g
     id="g9139" /><g
     id="g9141" /><g
     id="g9143" /><g
     id="g9145" /><g
     id="g9147" /><g
     id="g9149" /><g
     id="g9151" /><g
     id="g9153" /><g
     id="g9155" /><g
     id="g9157" /><path
     style="fill:#29b6f6;stroke:#000000;stroke-width:0.13654"
     d="M 53.575975,112.03855 C 44.489397,111.69847 35.222143,108.89044 27.128802,104.02493 19.449296,99.408203 12.695957,92.62409 8.0535034,84.862709 3.7028163,77.58911 1.051866,69.412481 0.27461615,60.869397 c -0.19155812,-2.105498 -0.19155812,-7.437297 0,-9.542795 C 1.0619912,42.672227 3.618746,34.791937 8.0592304,27.33329 16.200392,13.658644 30.193801,3.9171446 45.843026,1.030136 57.803304,-1.1763262 70.177921,0.5414047 80.909265,5.8977091 c 2.610908,1.3031746 3.739346,1.9556449 6.202817,3.5865089 13.118438,8.684654 22.079098,22.781242 24.387828,38.366081 0.43445,2.932697 0.56522,4.840844 0.56522,8.247701 0,4.611397 -0.35169,7.89587 -1.30646,12.201144 C 106.085,89.373953 89.373953,106.085 68.299144,110.75867 c -4.966307,1.10136 -9.338299,1.48142 -14.723169,1.27988 z M 41.306668,63.59591 V 43.351553 H 34.558549 27.81043 V 63.59591 83.840267 h 6.748119 6.748119 z m 20.887145,7.804642 0.03884,-12.439714 0.30113,-0.797287 c 0.604646,-1.600895 1.751119,-3.055746 3.097178,-3.930253 1.15517,-0.750492 2.288603,-1.0663 3.826951,-1.0663 3.450478,0 5.514199,1.830626 6.377889,5.657514 0.264162,1.170466 0.279533,1.774323 0.334012,13.121343 l 0.05711,11.894412 h 6.745627 6.745629 L 89.663936,70.582598 C 89.611562,57.780942 89.599804,57.27335 89.322085,55.825348 88.914967,53.702664 88.41496,52.068143 87.729152,50.618044 86.935292,48.939482 86.290746,47.99276 85.067439,46.708469 83.047873,44.588225 80.853871,43.403843 77.677812,42.719348 76.274742,42.416963 72.348276,42.37316 71.09382,42.6459 c -2.219444,0.482543 -4.159597,1.373485 -5.721092,2.627195 -1.134295,0.910714 -1.579772,1.374974 -2.512565,2.618505 L 62.16449,48.819018 V 46.085285 43.351553 H 55.416371 48.668252 V 63.59591 83.840267 h 6.74336 6.743359 z M 36.847411,37.685361 c 3.302184,-0.807223 5.315959,-3.364163 5.307798,-6.739441 -0.0082,-3.392529 -1.963039,-5.915002 -5.248496,-6.772527 -1.146383,-0.299213 -3.435416,-0.290679 -4.597537,0.01714 -3.097519,0.820461 -5.052442,3.149477 -5.269819,6.278247 -0.227349,3.272309 1.728582,6.122638 4.908838,7.153527 1.181734,0.383061 3.469674,0.412509 4.899216,0.06305 z"
     id="path9258" /></svg>
