<?xml version="1.0" encoding="UTF-8" standalone="no"?>
<svg
   id="Layer_1"
   style="enable-background:new 0 0 128 128;"
   version="1.1"
   viewBox="0 0 128 128"
   xml:space="preserve"
   sodipodi:docname="mail.svg"
   inkscape:version="1.1.2 (b8e25be833, 2022-02-05)"
   xmlns:inkscape="http://www.inkscape.org/namespaces/inkscape"
   xmlns:sodipodi="http://sodipodi.sourceforge.net/DTD/sodipodi-0.dtd"
   xmlns="http://www.w3.org/2000/svg"
   xmlns:svg="http://www.w3.org/2000/svg"><defs
     id="defs8928" /><sodipodi:namedview
     id="namedview8926"
     pagecolor="#ffffff"
     bordercolor="#666666"
     borderopacity="1.0"
     inkscape:pageshadow="2"
     inkscape:pageopacity="0.0"
     inkscape:pagecheckerboard="0"
     showgrid="false"
     inkscape:zoom="6.4296875"
     inkscape:cx="64"
     inkscape:cy="64.077764"
     inkscape:window-width="1920"
     inkscape:window-height="1009"
     inkscape:window-x="-8"
     inkscape:window-y="-8"
     inkscape:window-maximized="1"
     inkscape:current-layer="Layer_1" /><style
     type="text/css"
     id="style8903">
	.st0{fill:#267CB5;}
	.st1{fill:#FFFFFF;}
</style><g
     id="g8907"><circle
       class="st0"
       cx="64"
       cy="64"
       r="64"
       id="circle8905" /></g><g
     id="g8913"><g
       id="g8911"><path
         class="st1"
         d="M64,28"
         id="path8909" /></g></g><g
     id="g8923"><g
       id="g8917"><path
         class="st1"
         d="M64,72.4l38.2-32.7c-0.6-0.4-1.4-0.7-2.2-0.7H28c-0.8,0-1.6,0.3-2.2,0.7L64,72.4z"
         id="path8915" /></g><g
       id="g8921"><path
         class="st1"
         d="M66.6,75.4c-1.5,1.3-3.7,1.3-5.2,0L24,43.5V85c0,2.2,1.8,4,4,4h72c2.2,0,4-1.8,4-4V43.4L66.6,75.4z"
         id="path8919" /></g></g><path
     style="fill:#29b6f6;stroke:#000000;stroke-width:0.155773"
     d="M 61.044957,127.82378 C 50.7564,127.41227 40.271638,124.24814 31.183475,118.81207 14.83827,109.03523 3.5799847,92.215004 0.79413816,73.409478 0.29811763,70.06115 0.1434989,67.825069 0.1434989,64 c 0,-5.206432 0.41017407,-9.022236 1.4962884,-13.919806 C 7.3708343,24.237424 28.767299,4.4639874 55.057108,0.71484298 59.202387,0.12369197 65.479775,-0.05220024 69.443499,0.31173677 77.301203,1.033207 84.695451,3.0634717 91.591035,6.3928636 c 3.282231,1.5847577 4.827716,2.4627018 7.791711,4.4262374 16.132004,10.686851 26.530484,28.216054 28.301054,47.708428 0.21489,2.365793 0.21489,8.579149 0,10.944942 -2.0528,22.599422 -15.58752,42.211059 -35.921953,52.050419 -9.666272,4.67728 -19.724688,6.74055 -30.71689,6.30089 z M 101.57146,88.787379 c 0.8693,-0.395365 1.71531,-1.228405 2.11145,-2.079078 l 0.36265,-0.778775 0.002,-21.28149 c 9.3e-4,-12.605549 -0.0558,-21.260355 -0.13898,-21.229647 -0.0773,0.02851 -8.562879,7.26059 -18.856848,16.071283 C 74.114187,68.851208 66.025937,75.663788 65.590772,75.881271 64.693901,76.329504 63.523,76.368172 62.570887,75.981001 62.142995,75.807177 55.395744,70.152605 42.973849,59.557957 L 24.029162,43.400011 23.987054,64.587005 c -0.03818,19.208935 -0.01861,21.249277 0.20962,21.854131 0.459008,1.216485 1.458458,2.128955 2.700246,2.465255 0.555053,0.150318 8.695343,0.185763 37.414137,0.162911 33.50977,-0.02666 36.753103,-0.0512 37.260403,-0.281923 z m -18.223742,-32.7971 c 10.349287,-8.853462 18.820862,-16.174061 18.825712,-16.267995 0.005,-0.09393 -0.28635,-0.303897 -0.64713,-0.466586 C 100.88756,38.967667 99.902627,38.959903 64,38.959903 c -35.902627,0 -36.887561,0.0078 -37.526303,0.295795 -0.360776,0.162689 -0.651874,0.372653 -0.646883,0.466586 0.005,0.09393 8.587502,7.504579 19.072247,16.468097 17.124462,14.639881 19.092088,16.276956 19.347474,16.097205 0.156365,-0.110055 8.751898,-7.443844 19.101183,-16.297307 z"
     id="path9024" /></svg>
