<svg xmlns="http://www.w3.org/2000/svg" width="143" height="59" fill="none" viewBox="0 0 143 59">
  <g clip-path="url(#clip0_16_32)">
    <path fill="#000" d="M73.828 19.542l6.803-.488c.156 1.235.44 2.155.906 2.816.75 1.034 1.785 1.552 3.156 1.552 1.009 0 1.81-.259 2.354-.805.517-.43.828-1.12.828-1.84 0-.689-.285-1.35-.776-1.78-.518-.518-1.734-1.035-3.648-1.495-3.13-.776-5.38-1.81-6.7-3.133-1.319-1.236-2.07-3.046-2.017-4.972 0-1.322.362-2.643 1.034-3.736.776-1.235 1.837-2.212 3.105-2.758 1.37-.661 3.285-1.006 5.69-1.006 2.95 0 5.2.603 6.752 1.839 1.552 1.207 2.484 3.161 2.768 5.834L87.357 10c-.18-1.15-.543-1.983-1.138-2.529-.595-.546-1.37-.805-2.38-.805-.828 0-1.448.201-1.862.575a1.821 1.821 0 00-.621 1.437c0 .431.207.833.517 1.092.337.345 1.138.661 2.406.948 3.13.748 5.355 1.495 6.726 2.27 1.37.777 2.354 1.725 2.949 2.846.62 1.15.931 2.471.905 3.822 0 1.61-.414 3.219-1.242 4.57-.853 1.408-2.043 2.5-3.44 3.16-1.475.72-3.337 1.093-5.562 1.093-3.932 0-6.648-.834-8.174-2.53-1.526-1.695-2.432-3.821-2.613-6.408zM1.63 28.05V2.357h11.925c2.199 0 3.906.2 5.07.632 1.138.402 2.147 1.236 2.82 2.356.75 1.236 1.112 2.673 1.086 4.167.078 2.53-1.086 4.943-3.078 6.208a7.402 7.402 0 01-2.51 1.006c.647.2 1.294.546 1.863.948.44.402.802.862 1.139 1.35a9.034 9.034 0 011.008 1.61l3.467 7.443h-8.123l-3.829-7.903c-.491-1.005-.905-1.666-1.293-1.983a2.861 2.861 0 00-1.759-.603h-.62V28.02H1.63v.029zm7.165-15.29h3.027a10.46 10.46 0 001.888-.344c.466-.086.88-.374 1.164-.805.699-1.034.595-2.5-.258-3.39-.466-.432-1.371-.662-2.665-.662H8.795v5.202zM0 50.063l6.803-.488c.156 1.236.44 2.155.906 2.816.724 1.035 1.785 1.58 3.156 1.58 1.009 0 1.81-.258 2.354-.804.517-.46.828-1.12.828-1.84 0-.689-.285-1.35-.777-1.78-.517-.518-1.733-1.035-3.673-1.495-3.13-.776-5.38-1.81-6.7-3.133C1.578 43.682.827 41.872.88 39.946c0-1.322.362-2.643 1.034-3.736.776-1.235 1.837-2.212 3.104-2.758 1.371-.661 3.286-1.006 5.692-1.006 2.948 0 5.199.603 6.751 1.839 1.552 1.236 2.458 3.161 2.742 5.834l-6.726.43c-.18-1.149-.543-1.982-1.138-2.528-.569-.546-1.37-.805-2.38-.776-.827 0-1.448.201-1.862.604a1.743 1.743 0 00-.621 1.436c0 .432.207.834.517 1.093.337.344 1.139.66 2.406.948 3.13.747 5.355 1.494 6.726 2.27 1.37.776 2.354 1.725 2.949 2.845.62 1.15.931 2.472.931 3.794 0 1.61-.44 3.19-1.242 4.54-.853 1.409-2.043 2.5-3.44 3.162-1.475.718-3.337 1.092-5.562 1.092-3.932 0-6.648-.834-8.174-2.53C1.06 54.776.207 52.65 0 50.063z"/>
    <path fill="#000" d="M34.405 48.05l6.26 2.099a13.706 13.706 0 01-1.992 4.885 8.885 8.885 0 01-3.363 2.96C33.965 58.655 32.258 59 30.188 59c-2.509 0-4.578-.402-6.156-1.207-1.604-.805-2.975-2.242-4.14-4.282-1.163-2.04-1.732-4.656-1.732-7.846 0-4.253 1.008-7.53 3.052-9.8 2.044-2.27 4.915-3.42 8.64-3.42 2.923 0 5.2.662 6.881 1.955 1.656 1.322 2.897 3.334 3.725 6.035l-6.312 1.552a6.58 6.58 0 00-.698-1.724 4.26 4.26 0 00-1.475-1.409c-.595-.344-1.267-.488-1.94-.488-1.63 0-2.871.718-3.725 2.184-.647 1.063-.983 2.759-.983 5.058 0 2.845.388 4.8 1.164 5.863.776 1.063 1.863 1.58 3.285 1.58 1.371 0 2.406-.43 3.105-1.264.698-.891 1.215-2.127 1.526-3.736zM49.02 32.878h7.14v8.995h7.812v-8.995h7.192v25.692h-7.192V48.166H56.16v10.403h-7.14V32.877z"/>
    <path fill="#000" d="M70.18 45.723c0-4.196 1.061-7.472 3.157-9.8 2.095-2.328 5.044-3.506 8.795-3.506 3.854 0 6.803 1.15 8.899 3.449 2.095 2.299 3.13 5.517 3.13 9.656 0 3.017-.466 5.46-1.371 7.386-.88 1.896-2.25 3.448-3.932 4.483C87.124 58.454 84.978 59 82.416 59c-2.612 0-4.76-.46-6.467-1.38-1.759-.976-3.207-2.5-4.164-4.368-1.061-2.011-1.604-4.512-1.604-7.53zm7.14.029c0 2.586.44 4.454 1.294 5.604.853 1.12 2.043 1.695 3.544 1.695 1.526 0 2.716-.546 3.57-1.667.853-1.12 1.267-3.103 1.267-5.977 0-2.414-.44-4.196-1.32-5.288-.879-1.12-2.069-1.667-3.569-1.667-1.32-.057-2.587.575-3.466 1.696-.88 1.12-1.32 2.988-1.32 5.604zm24.161-.03c0-4.195 1.061-7.471 3.156-9.799 2.096-2.328 5.045-3.506 8.796-3.506 3.854 0 6.829 1.15 8.898 3.449 2.07 2.299 3.13 5.517 3.13 9.656 0 3.017-.465 5.46-1.371 7.386-.879 1.896-2.25 3.448-3.932 4.483-1.733 1.063-3.88 1.609-6.441 1.609-2.613 0-4.76-.46-6.467-1.38-1.759-.976-3.208-2.5-4.165-4.368-1.06-2.011-1.604-4.512-1.604-7.53zm7.14.03c0 2.586.44 4.454 1.293 5.604.854 1.12 2.044 1.695 3.544 1.695 1.527 0 2.717-.546 3.57-1.667.854-1.12 1.268-3.103 1.268-5.977 0-2.414-.44-4.196-1.319-5.288-.88-1.12-2.07-1.667-3.57-1.667-1.32-.057-2.613.575-3.467 1.696-.879 1.12-1.319 2.988-1.319 5.604z"/>
    <path fill="#000" d="M124.711 32.877h7.14v19.37H143v6.322h-18.315V32.877h.026z"/>
    <path fill="#fff" d="M116.842 31.394c7.188-6.018 9.404-16.219 4.951-22.785-4.454-6.566-13.892-7.01-21.08-.992-7.188 6.017-9.405 16.219-4.95 22.785 4.453 6.566 13.891 7.01 21.079.992z"/>
    <path fill="#000" d="M101.507 17.617l2.587-2.012 3.182 5.03c.543.804.957 1.666 1.267 2.614.182.719.13 1.495-.129 2.184-.336.863-.879 1.581-1.604 2.098-.853.661-1.578 1.035-2.199 1.15-.594.115-1.215 0-1.784-.287a4.456 4.456 0 01-1.578-1.466l2.224-2.3c.181.317.414.604.673.834.181.144.388.23.621.23a.768.768 0 00.491-.201.981.981 0 00.414-.862c-.078-.489-.259-.977-.543-1.35l-3.622-5.662zm7.761 3.19l2.354-2.07c.258.345.595.604.957.748.517.172 1.061.057 1.5-.316.311-.23.569-.547.673-.949.155-.517-.104-1.092-.569-1.264-.078-.03-.155-.058-.233-.058-.31-.029-.854.115-1.656.489-1.319.603-2.354.833-3.13.747a2.469 2.469 0 01-1.862-1.236 3.33 3.33 0 01-.492-1.638c0-.66.155-1.322.492-1.868.491-.776 1.086-1.437 1.811-1.954 1.086-.834 2.043-1.236 2.871-1.236.828 0 1.604.431 2.328 1.322l-2.328 2.04c-.466-.66-1.345-.804-1.94-.287l-.078.086c-.258.173-.44.431-.543.748a.815.815 0 00.103.69c.104.143.259.258.44.258.207.029.569-.086 1.087-.345 1.293-.603 2.276-.948 2.949-1.063a2.703 2.703 0 011.707.2c.491.23.905.633 1.19 1.122.362.574.569 1.264.595 1.983a3.925 3.925 0 01-.517 2.098 6.724 6.724 0 01-1.76 1.954c-1.422 1.092-2.586 1.552-3.518 1.38-1.008-.173-1.836-.748-2.431-1.581z"/>
  </g>
  <defs>
    <clipPath id="clip0_16_32">
      <path fill="#fff" d="M0 0h143v59H0z"/>
    </clipPath>
  </defs>
</svg>
